<svg xmlns="http://www.w3.org/2000/svg" xmlns:xlink="http://www.w3.org/1999/xlink" width="500" zoomAndPan="magnify" viewBox="0 0 375 374.999991" height="500" preserveAspectRatio="xMidYMid meet" version="1.2"><defs><clipPath id="ad74a54dee"><path d="M 97.746094 91.542969 L 272 91.542969 L 272 270.792969 L 97.746094 270.792969 Z M 97.746094 91.542969 "/></clipPath><clipPath id="1c7fa81fc1"><path d="M 243 164 L 276.996094 164 L 276.996094 198 L 243 198 Z M 243 164 "/></clipPath></defs><g id="1e6dae1d6c"><g clip-rule="nonzero" clip-path="url(#ad74a54dee)"><path style=" stroke:none;fill-rule:nonzero;fill:#000000;fill-opacity:1;" d="M 187.515625 270.703125 C 226.003906 270.703125 258.800781 246.242188 271.429688 212.089844 C 267.929688 213.359375 264.175781 214.089844 260.242188 214.089844 C 251.632812 214.089844 243.808594 210.738281 237.9375 205.308594 C 228.902344 224.105469 209.726562 237.140625 187.515625 237.140625 C 156.65625 237.140625 131.546875 212.035156 131.546875 181.171875 C 131.546875 150.3125 156.65625 125.203125 187.515625 125.203125 C 209.726562 125.203125 228.902344 138.242188 237.9375 157.039062 C 243.808594 151.605469 251.632812 148.257812 260.242188 148.257812 C 264.175781 148.257812 267.929688 148.984375 271.429688 150.253906 C 258.800781 116.101562 226.003906 91.640625 187.515625 91.640625 C 138.148438 91.640625 97.984375 131.804688 97.984375 181.171875 C 97.984375 230.542969 138.148438 270.703125 187.515625 270.703125 Z M 187.515625 270.703125 "/></g><g clip-rule="nonzero" clip-path="url(#1c7fa81fc1)"><path style=" stroke:none;fill-rule:nonzero;fill:#ee4a32;fill-opacity:1;" d="M 260.246094 164.414062 C 269.484375 164.414062 277.003906 171.933594 277.003906 181.175781 C 277.003906 190.414062 269.484375 197.929688 260.246094 197.929688 C 251.003906 197.929688 243.484375 190.414062 243.484375 181.175781 C 243.484375 171.933594 251.003906 164.414062 260.246094 164.414062 Z M 260.246094 164.414062 "/></g></g></svg>